<svg width="504" height="837" viewBox="0 0 504 837" fill="none" xmlns="http://www.w3.org/2000/svg">
<path d="M411.706 317.067C413.308 323.046 413.168 330.739 411.064 341.495C405.211 370.114 374.257 406.147 341.511 444.208C323.539 465.151 304.941 486.777 290.473 507.384C262.882 539.204 250.016 584.066 237.53 627.493C228.422 659.221 219.786 689.188 205.944 714.313L205.913 714.365C195.013 733.37 182.477 744.255 167.615 747.635C138.615 754.244 105.017 731.121 66.1166 704.302L62.3742 701.735C33.4259 681.882 -4.74602 657.447 -61.3428 622.424L-66.0116 619.418C-115.293 587.724 -176.63 548.252 -223.446 488.374C-326.225 370.855 -306.453 238.603 -260.647 186.248C-205.84 129.761 -135.656 114.567 7.72111 128.101C157.243 142.439 292.443 226.715 343.617 262.288C361.484 277.67 376.003 286.423 386.603 292.787C400.005 300.893 408.782 306.153 411.706 317.067ZM200.975 711.861C214.515 687.288 223.048 657.607 232.106 626.194C244.726 582.258 257.787 536.785 286.003 504.281C300.461 483.635 319.162 461.894 337.208 440.889C369.464 403.346 399.939 367.871 405.538 340.653C410.71 313.851 403.851 309.711 383.484 297.407C372.715 290.917 357.933 282.019 339.949 266.539C289.345 231.416 155.157 147.729 6.96832 133.506C-134.34 120.15 -203.299 134.886 -256.552 189.795C-300.972 240.618 -319.935 369.685 -219.101 484.974C-172.72 544.237 -111.814 583.438 -62.9019 614.929L-58.2438 617.895C-1.59438 652.947 36.6302 677.411 65.6419 697.333L69.3843 699.9C107.189 725.981 139.848 748.452 166.354 742.425C179.602 739.391 190.895 729.399 200.975 711.861Z" fill="#A7CEFC"/>
<path d="M375.862 335.403C378.077 343.668 377.655 353.157 375.978 366.508L375.959 366.771C370.042 393.128 345.74 419.25 320.04 446.865C302.459 465.725 284.337 485.246 269.764 506.783C245.181 538.228 229.03 573.821 213.406 608.197C202.935 631.302 193.023 653.138 180.948 673.103L180.688 673.474C143.991 717.367 117.939 699.92 70.6208 668.303C65.4779 664.865 60.061 661.241 54.297 657.496C44.1948 649.796 33.0407 641.689 21.2117 633.075C-31.3858 594.83 -103.414 542.396 -172.625 459.748C-249.679 356.71 -240.216 258.614 -196.685 207.041C-150.913 154.781 -79.9061 151.28 43.457 163.166C169.152 178.728 265.034 242.919 316.537 277.414L322.28 281.251C357.237 307.795 371.561 319.352 375.862 335.403ZM370.412 365.849C374.931 329.416 370.252 324.692 318.909 285.595L313.323 281.845C262.21 247.632 167.045 183.937 42.7778 168.509C-78.517 156.799 -148.246 160.044 -192.33 210.39C-234.465 260.299 -243.337 355.741 -168.092 456.383C-99.3993 538.439 -27.6668 590.608 24.6781 628.748C36.5071 637.363 47.6613 645.469 57.7001 653.101C63.3061 656.759 68.723 660.383 73.9078 663.81C121.279 695.456 142.947 709.949 176.239 670.279C188.085 650.634 197.873 629.002 208.272 606.132C223.988 571.43 240.295 535.58 265.18 503.754C279.878 482.011 298.177 462.314 315.894 443.289C340.999 416.306 364.738 390.764 370.412 365.849Z" fill="#A7CEFC"/>
<path d="M346.024 350.967C348.851 361.519 347.537 372.365 344.104 386.359C336.748 410.177 314.619 433.653 291.241 458.496C277.321 473.235 262.965 488.521 250.442 504.95C230.214 528.648 214.437 554.55 199.137 579.551C186.588 600.073 174.766 619.454 161.581 635.76L161.372 635.987C125.37 671.524 98.8696 651.875 50.7386 616.175L50.1799 615.765L41.9429 608.984C-4.82265 570.338 -68.8853 517.404 -126.613 436.84C-190.182 340.509 -172.325 263.56 -137.788 226.912C-100.96 187.756 -39.8928 178.575 72.9861 195.206C152.02 208.176 229.331 243.196 302.761 299.254C329.435 321.394 341.981 335.88 346.024 350.967ZM157.226 632.411C170.13 616.395 181.87 597.208 194.252 576.903C209.635 551.709 225.589 525.63 245.983 501.715C258.558 485.143 273.071 469.772 287.095 454.919C310.067 430.572 331.737 407.563 338.682 385.059C346.573 353.185 342.571 339.42 299.127 303.453C226.446 248.012 149.998 213.362 71.9509 200.558C-38.7753 184.254 -98.3668 192.91 -133.726 230.511C-169.555 268.538 -179.834 346.122 -121.986 433.836C-64.7025 513.746 -0.977209 566.426 45.5981 604.865L54.1725 611.9C102.641 647.854 124.83 664.314 157.226 632.411Z" fill="#A7CEFC"/>
<path d="M318.154 362.476C321.315 374.273 320.053 386.481 315.074 401.061L315.054 401.152C306.728 423.338 285.71 445.054 263.505 468.034C253.204 478.664 242.602 489.676 232.758 501.173C218.045 516.942 204.994 533.556 192.422 549.611C176.97 569.32 162.36 587.985 147.015 601.73C113.744 627.461 87.9985 609.76 49.4479 577.6C12.1241 543.82 -42.3883 490.779 -85.3089 419.364C-120.972 349.745 -123.069 291.002 -91.3001 253.805C-57.0862 213.673 11.3715 203.028 96.5371 224.59C195.335 244.607 264.834 299.481 283.755 315.829C303.187 333.415 314.176 347.63 318.154 362.476ZM309.758 399.475C319.015 372.223 316.919 353.346 279.902 319.872C261.276 303.789 192.684 249.618 95.125 229.871C12.0812 208.859 -54.2734 218.811 -86.9782 257.205C-117.238 292.665 -114.85 349.309 -80.303 416.775C-37.8068 487.444 16.2942 540.123 53.3119 573.597C92.9698 606.707 114.816 619.905 143.476 597.733C158.268 584.437 172.711 565.988 188.029 546.445C200.705 530.275 213.775 513.57 228.603 497.728C238.437 486.19 249.165 475.145 259.496 464.463C281.222 441.87 301.812 420.569 309.758 399.475Z" fill="#A7CEFC"/>
<path d="M292.367 371.665C295.722 384.185 294.329 396.9 288.577 411.257L288.371 411.657C252.301 470.391 156.111 554.181 137.217 570.382L136.758 570.677C107.877 587.103 84.7274 573.695 52.1245 543.252C22.7279 514.23 -18.4572 466.992 -47.96 406.604C-73.3043 350.52 -72.1036 303.107 -44.5931 273.029C-14.0235 239.636 43.9385 231.803 114.433 251.491C181.601 267.468 236.342 302.859 265.144 330.664C279.916 345.285 288.809 358.384 292.367 371.665ZM283.449 409.191C294.343 381.716 288.284 361.449 261.113 334.54C232.85 307.235 179.045 272.496 112.875 256.725C45.4364 237.896 -11.826 245.326 -40.4188 276.555C-66.4103 304.936 -67.2997 350.331 -42.8398 404.286C-13.6667 463.945 27.1059 510.648 56.1546 539.377C87.3339 568.524 107.949 580.675 133.803 566.179C188.077 519.64 255.818 454.053 283.449 409.191Z" fill="#A7CEFC"/>
<path d="M269.611 380.085C273.202 393.487 271.651 406.332 264.981 417.537C238.764 462.235 173.396 518.972 131.083 541.878C121.105 546.444 110.228 546.649 98.7059 542.597C63.1905 530.095 20.9831 476.164 -14.1898 398.287C-31.1592 353.592 -27.4552 315.872 -3.76194 291.977C23.0864 264.914 71.1673 259.17 128.098 276.213C200.429 298.849 252.452 335.183 267.364 373.376C268.281 375.625 269.02 377.878 269.611 380.085ZM-14.4938 379.187C-13.0101 384.725 -11.1788 390.384 -8.95799 396.154C25.5545 472.574 66.5891 525.486 100.745 537.449C110.878 541.013 120.241 540.87 128.616 537.034C170.059 514.576 234.382 458.808 260.13 414.88C267.008 403.275 267.703 389.585 262.131 375.338C247.795 338.624 197.03 303.458 126.321 281.334C72.328 265.181 25.2114 270.495 0.274854 295.626C-18.8113 314.889 -23.8798 344.158 -14.4938 379.187Z" fill="#A7CEFC"/>
<path d="M246.193 385.027C249.526 397.466 248.264 409.544 242.411 420.273C221.663 458.517 168.067 503.111 127.741 515.637L127.657 515.659C90.1452 525.925 43.2968 474.486 16.3444 393.373C6.05544 358.5 11.3338 329.175 31.3076 310.706C54.1974 289.521 92.7239 285.39 137.045 299.361C191.036 316.848 230.919 346.156 243.764 377.808C244.735 380.257 245.559 382.659 246.193 385.027ZM126.176 510.465C165.284 498.266 217.301 454.998 237.436 417.822C243.621 406.488 243.984 393.403 238.522 379.9C226.243 349.689 187.606 321.508 135.142 304.516C92.8849 291.196 56.3947 294.867 35.0937 314.594C16.7506 331.594 11.9333 358.946 21.6632 391.733C47.2661 468.648 92.2205 519.736 126.176 510.465Z" fill="#A7CEFC"/>
<path d="M223.84 389.081C226.754 399.954 225.872 410.598 221.127 420.256C204.609 454.141 161.492 486.638 126.931 491.297C93.6166 495.235 57.2083 451.362 44.0264 391.589C38.6339 365.252 44.6811 343.161 60.9937 329.329C79.6906 313.482 109.343 310.482 142.304 321.175C180.931 333.876 210.401 356.385 221.145 381.374C222.285 383.949 223.152 386.513 223.84 389.081ZM51.7781 399.533C65.8196 451.936 97.5644 489.317 126.342 485.907C158.603 481.563 200.537 449.856 216.079 418.039C221.187 407.553 221.147 395.651 215.966 383.535C205.808 359.895 177.544 338.525 140.39 326.289C109.398 316.23 81.7931 318.81 64.6333 333.342C49.931 345.797 44.5666 366.071 49.5055 390.379C50.2386 393.451 50.9718 396.523 51.7781 399.533Z" fill="#A7CEFC"/>
<path d="M202.38 392.596C204.724 401.343 204.208 409.996 200.83 418.04C189.09 445.915 156.508 468.536 128.193 468.468C100.14 468.2 74.3358 434.689 69.4457 392.262C67.4089 373.412 73.2522 357.612 85.9103 347.769C100.242 336.618 121.628 334.5 144.585 341.939C170.817 350.521 190.828 366.103 199.453 384.693C200.688 387.286 201.67 389.947 202.38 392.596ZM128.36 463.047C154.069 463.126 184.881 441.624 195.637 416.12C199.461 407.054 199.012 396.982 194.348 386.964C186.416 369.952 167.113 354.997 142.702 347.002C121.62 340.179 102.219 341.98 89.4035 351.908C78.304 360.516 73.2178 374.608 75.0537 391.534C79.525 430.718 103.46 462.795 128.36 463.047Z" fill="#A7CEFC"/>
<path d="M181.556 395.809C183.18 401.868 183.112 408.165 180.963 414.246C173.938 434.534 151.408 449.172 130.784 446.915C110.233 444.594 93.2241 421.241 92.8864 394.797C92.7183 382.585 97.5754 372.338 106.481 365.952C116.297 358.935 130.12 357.468 144.356 361.911C163.911 368.068 177.664 381.284 181.556 395.809ZM175.677 412.651C181.741 395.157 166.904 374.706 142.538 367.043C130.07 363.158 118.095 364.303 109.797 370.268C102.398 375.562 98.372 384.209 98.5083 394.623C98.8305 418.491 113.65 439.55 131.551 441.548C149.672 443.531 169.458 430.574 175.677 412.651Z" fill="#A7CEFC"/>
<path d="M161.208 399.283C162.09 402.573 162.152 405.997 161.258 409.376C158.196 420.948 146.06 428.543 134.16 426.27C122.406 424.044 113.724 411.619 114.833 398.635C115.363 392.386 118.359 387.111 123.331 383.843C128.565 380.377 135.528 379.5 142.403 381.485C152.121 384.343 159.068 391.298 161.208 399.283ZM121.145 406.577C123.091 413.84 128.581 419.723 135.41 421.032C144.365 422.719 153.537 416.993 155.817 408.21C158.151 399.457 151.334 389.801 140.659 386.727C135.342 385.184 130.321 385.755 126.427 388.347C122.91 390.665 120.778 394.462 120.385 399.04C120.222 401.621 120.5 404.17 121.145 406.577Z" fill="#A7CEFC"/>
</svg>
